#!OML:ASF F:\VICON\USERDATA\INSTALL\rory3\rory3.ASF
:FULLY-SPECIFIED
:DEGREES
1380
root 0.931451 15.7486 2.88611 5.4582 -46.2435 12.0684
lowerback -0.265746 4.90997 6.15251
upperback 5.79839 6.36171 -1.32087
thorax 7.07219 3.51338 -4.36395
lowerneck 1.15192 -9.3414 -12.5192
upperneck 46.2035 -18.579 9.32527
head 20.5411 -8.96889 3.80396
rclavicle 7.79236e-014 -9.54166e-015
rhumerus -20.123 24.9047 -96.2308
rradius 20.6675
rwrist 17.7725
rhand -26.9237 -53.2777
rfingers 7.12502
rthumb -0.346398 -83.2572
lclavicle 7.79236e-014 -9.54166e-015
lhumerus -43.0862 -83.0441 119.156
lradius 84.5398
lwrist 22.8295
lhand 4.76491 -20.1507
lfingers 7.12502
lthumb 30.1457 7.41013
rfemur -33.9697 1.98892 -4.51915
rtibia 76.0516
rfoot -1.73502 -8.03232
rtoes -36.4506
lfemur -49.7741 -18.9584 -28.2662
ltibia 57.4298
lfoot -20.6059 1.18843
ltoes 18.4592
1381
root 0.932484 15.75 2.88387 5.49103 -46.1993 12.0267
lowerback -0.265776 4.90757 6.19631
upperback 5.79141 6.35735 -1.32406
thorax 7.07016 3.51365 -4.39211
lowerneck 0.677852 -9.38735 -12.696
upperneck 46.4445 -18.5841 9.28003
head 20.9335 -9.01421 3.90544
rclavicle -1.15295e-013 7.95139e-015
rhumerus -20.1197 24.9762 -96.2698
rradius 20.7014
rwrist 17.6438
rhand -26.8097 -53.3056
rfingers 7.12502
rthumb -0.236317 -83.2853
lclavicle -1.15295e-013 7.95139e-015
lhumerus -42.9535 -83.0173 119.016
lradius 84.5236
lwrist 22.7056
lhand 4.86015 -19.7296
lfingers 7.12502
lthumb 30.2366 7.81456
rfemur -34.0141 1.9201 -4.45126
rtibia 76.0737
rfoot -1.59034 -8.02726
rtoes -34.4825
lfemur -49.7868 -19.0475 -28.1456
ltibia 57.4011
lfoot -20.5876 1.05822
ltoes 18.8296
1382
root 0.934426 15.7485 2.87552 5.5742 -46.1224 11.9423
lowerback -0.203007 4.86942 6.20234
upperback 5.75251 6.30815 -1.28144
thorax 6.98048 3.48511 -4.36286
lowerneck 0.693778 -9.37498 -12.7807
upperneck 46.4572 -18.5632 9.28982
head 20.9539 -9.02144 3.93152
rclavicle 1.06549e-013 2.54444e-014
rhumerus -20.1785 25.128 -96.2986
rradius 20.7768
rwrist 17.5317
rhand -26.6822 -53.494
rfingers 7.12502
rthumb -0.113132 -83.4738
lclavicle 1.06549e-013 2.54444e-014
lhumerus -42.9457 -82.8936 119.042
lradius 84.4706
lwrist 22.5874
lhand 5.06924 -19.7148
lfingers 7.12502
lthumb 30.436 7.79261
rfemur -34.0621 1.86498 -4.36381
rtibia 76.1125
rfoot -1.38324 -8.03368
rtoes -34.7668
lfemur -49.8613 -19.0095 -28.0722
ltibia 57.3975
lfoot -20.4469 1.03241
ltoes 18.3411
1383
root 0.93461 15.7473 2.87347 5.61822 -46.0936 11.8914
lowerback -0.174122 4.92706 6.24458
upperback 5.7582 6.38691 -1.30776
thorax 6.9895 3.52785 -4.40867
lowerneck 0.657094 -9.45721 -12.6643
upperneck 46.4267 -18.7088 9.31412
head 20.9609 -9.0519 3.89001
rclavicle -6.2816e-014 3.02153e-014
rhumerus -20.0795 24.8423 -96.2369
rradius 20.7022
rwrist 17.7315
rhand -26.8032 -53.3902
rfingers 7.12502
rthumb -0.230036 -83.3699
lclavicle -6.2816e-014 3.02153e-014
lhumerus -43.6365 -83.0979 119.755
lradius 84.4439
lwrist 22.6663
lhand 4.96878 -19.8108
lfingers 7.12502
lthumb 30.3402 7.71428
rfemur -34.0404 1.84397 -4.33516
rtibia 76.1275
rfoot -1.70225 -7.96218
rtoes -35.4651
lfemur -49.8699 -18.9741 -28.064
ltibia 57.4089
lfoot -20.3999 1.11193
ltoes 17.6166
1384
root 0.934277 15.7458 2.87505 5.55201 -46.0983 11.9418
lowerback -0.20296 4.82145 6.18652
upperback 5.74868 6.24273 -1.25086
thorax 6.96161 3.45015 -4.3283
lowerneck 0.622636 -9.34198 -12.9265
upperneck 46.535 -18.5019 9.27858
head 21.0549 -9.02297 3.96325
rclavicle 6.44062e-014 3.33958e-014
rhumerus -20.0936 24.9457 -96.2077
rradius 20.5782
rwrist 18.1454
rhand -26.7373 -53.2054
rfingers 7.12502
rthumb -0.166368 -83.185
lclavicle 6.44062e-014 3.33958e-014
lhumerus -43.3884 -82.6801 119.552
lradius 84.3832
lwrist 22.669
lhand 4.90508 -19.7548
lfingers 7.12502
lthumb 30.2794 7.78154
rfemur -33.9455 1.84238 -4.40873
rtibia 76.126
rfoot -1.93946 -7.87891
rtoes -34.373
lfemur -49.8201 -18.9922 -28.1193
ltibia 57.4325
lfoot -20.5239 1.14901
ltoes 17.6809
1385
root 0.934971 15.7443 2.8714 5.56173 -46.0928 11.9275
lowerback -0.143991 4.80544 6.1556
upperback 5.71526 6.2253 -1.22658
thorax 6.88213 3.43637 -4.29434
lowerneck 0.572099 -9.32879 -12.9421
upperneck 46.602 -18.4845 9.25527
head 21.1214 -9.02009 3.95736
rclavicle 4.45278e-014 -9.54166e-015
rhumerus -19.9987 24.5813 -96.1212
rradius 20.3734
rwrist 18.5998
rhand -26.6644 -52.9265
rfingers 7.12502
rthumb -0.0959733 -82.9062
lclavicle 4.45278e-014 -9.54166e-015
lhumerus -43.6781 -82.5931 119.865
lradius 84.3734
lwrist 22.6067
lhand 5.25222 -19.8877
lfingers 7.12502
lthumb 30.6105 7.58728
rfemur -33.9643 1.82019 -4.39902
rtibia 76.143
rfoot -2.07032 -7.84786
rtoes -32.4192
lfemur -49.8535 -18.9332 -28.1347
ltibia 57.4649
lfoot -20.5908 1.07012
ltoes 18.3596
1386
root 0.935021 15.7437 2.86943 5.60812 -46.1085 11.9028
lowerback -0.147299 4.84855 6.15642
upperback 5.70028 6.28392 -1.23615
thorax 6.87694 3.46534 -4.30002
lowerneck 0.568884 -9.36442 -12.8607
upperneck 46.5864 -18.5558 9.27049
head 21.1151 -9.03115 3.93536
rclavicle 5.56597e-014 -4.92986e-014
rhumerus -20.0132 24.384 -96.0998
rradius 20.4113
rwrist 18.5686
rhand -26.9291 -52.8276
rfingers 7.12502
rthumb -0.351567 -82.8071
lclavicle 5.56597e-014 -4.92986e-014
lhumerus -43.8069 -82.7232 119.976
lradius 84.4168
lwrist 22.69
lhand 5.76435 -20.1183
lfingers 7.12502
lthumb 31.0987 7.26431
rfemur -34.0335 1.83407 -4.3852
rtibia 76.163
rfoot -2.12779 -7.85482
rtoes -31.5609
lfemur -49.8985 -18.7725 -28.2164
ltibia 57.486
lfoot -20.5889 1.11311
ltoes 18.4797
1387
root 0.934717 15.7423 2.87284 5.50956 -46.1483 12.0318
lowerback -0.195829 4.89093 6.11607
upperback 5.71638 6.34156 -1.27816
thorax 6.93014 3.49483 -4.31152
lowerneck 0.619733 -9.39299 -12.8495
upperneck 46.547 -18.6061 9.29393
head 21.082 -9.04778 3.9368
rclavicle 5.56597e-015 -1.59028e-014
rhumerus -20.1224 24.1841 -96.0557
rradius 20.7089
rwrist 18.5884
rhand -27.0684 -53.1078
rfingers 7.12502
rthumb -0.486136 -83.087
lclavicle 5.56597e-015 -1.59028e-014
lhumerus -43.7368 -82.8159 119.899
lradius 84.4361
lwrist 22.746
lhand 6.12726 -20.1599
lfingers 7.12502
lthumb 31.4446 7.15583
rfemur -34.0113 1.86672 -4.52416
rtibia 76.1735
rfoot -2.16397 -7.88112
rtoes -31.9318
lfemur -49.8595 -18.7475 -28.338
ltibia 57.4666
lfoot -20.5812 1.15052
ltoes 18.0364
1388
root 0.934343 15.7423 2.87583 5.4556 -46.191 12.1186
lowerback -0.238983 4.90303 6.07927
upperback 5.71312 6.3576 -1.28992
thorax 6.95036 3.50155 -4.2985
lowerneck 0.654698 -9.38599 -12.8619
upperneck 46.5385 -18.5654 9.23941
head 21.0404 -9.03931 3.9202
rclavicle 8.18993e-014 -6.36111e-015
rhumerus -20.2045 24.1079 -96.0107
rradius 20.8604
rwrist 18.6656
rhand -27.1895 -53.0283
rfingers 7.12502
rthumb -0.60314 -83.0072
lclavicle 8.18993e-014 -6.36111e-015
lhumerus -43.6061 -82.7945 119.788
lradius 84.4148
lwrist 22.7103
lhand 6.48019 -20.1809
lfingers 7.12502
lthumb 31.7808 7.06879
rfemur -34.0716 1.81584 -4.58558
rtibia 76.1885
rfoot -1.92034 -7.899
rtoes -36.0554
lfemur -49.8216 -18.8798 -28.289
ltibia 57.4053
lfoot -20.5276 1.0716
ltoes 17.6773
1389
root 0.933044 15.7417 2.87596 5.48409 -46.2204 12.096
lowerback -0.275622 4.88063 6.05509
upperback 5.72192 6.32536 -1.27706
thorax 6.97199 3.48434 -4.27099
lowerneck 0.574328 -9.3676 -12.8064
upperneck 46.5638 -18.4888 9.12629
head 21.0264 -9.00544 3.86185
rclavicle 3.97569e-015 9.54166e-015
rhumerus -20.1346 24.2094 -96.0129
rradius 20.7518
rwrist 18.7264
rhand -27.1953 -52.741
rfingers 7.12502
rthumb -0.608704 -82.7199
lclavicle 3.97569e-015 9.54166e-015
lhumerus -42.9683 -82.7718 119.102
lradius 84.4404
lwrist 22.8462
lhand 6.71613 -20.1532
lfingers 7.12502
lthumb 32.0054 7.05166
rfemur -34.1525 1.78972 -4.54314
rtibia 76.2044
rfoot -1.69363 -7.82028
rtoes -34.3893
lfemur -49.8083 -18.9372 -28.2061
ltibia 57.3621
lfoot -20.5024 1.05279
ltoes 17.3468
1390
root 0.931243 15.7392 2.87735 5.42194 -46.2124 12.097
lowerback -0.259301 4.86786 6.04827
upperback 5.7603 6.30865 -1.28556
thorax 7.00212 3.47753 -4.27718
lowerneck 0.550717 -9.37318 -12.7928
upperneck 46.5249 -18.5181 9.18625
head 21.0216 -9.009 3.88159
rclavicle 3.18055e-015 -2.22639e-014
rhumerus -20.0196 24.1692 -96.0072
rradius 20.6279
rwrist 18.9587
rhand -26.8412 -52.8835
rfingers 7.12502
rthumb -0.266729 -82.8631
lclavicle 3.18055e-015 -2.22639e-014
lhumerus -42.6613 -82.818 118.748
lradius 84.465
lwrist 22.9709
lhand 6.80338 -20.1811
lfingers 7.12502
lthumb 32.0885 7.00704
rfemur -34.0638 1.84111 -4.54922
rtibia 76.2108
rfoot -1.7214 -7.78045
rtoes -36.9154
lfemur -49.7276 -18.9305 -28.2464
ltibia 57.3625
lfoot -20.5441 1.14156
ltoes 17.1085
1391
root 0.930269 15.7385 2.87846 5.53244 -46.1769 11.9262
lowerback -0.272347 4.87552 6.18335
upperback 5.76045 6.31177 -1.26235
thorax 7.02469 3.48619 -4.3255
lowerneck 0.601888 -9.38884 -12.8036
upperneck 46.5071 -18.5673 9.23749
head 21.0186 -9.02833 3.90295
rclavicle -5.56597e-015 9.54166e-015
rhumerus -19.9996 24.0032 -95.9825
rradius 20.6636
rwrist 19.0988
rhand -26.5196 -53.1676
rfingers 7.12502
rthumb 0.0438897 -83.1474
lclavicle -5.56597e-015 9.54166e-015
lhumerus -42.8613 -82.8477 118.962
lradius 84.431
lwrist 22.9085
lhand 6.67424 -20.1363
lfingers 7.12502
lthumb 31.9656 7.07655
rfemur -34.0089 1.88108 -4.41571
rtibia 76.2089
rfoot -1.83156 -7.86851
rtoes -33.9463
lfemur -49.7397 -18.9229 -28.1361
ltibia 57.4021
lfoot -20.5513 1.16187
ltoes 17.1275
1392
root 0.930205 15.7352 2.87571 5.64789 -46.163 11.8387
lowerback -0.337726 4.87578 6.23833
upperback 5.74651 6.3059 -1.24683
thorax 7.05166 3.48598 -4.33484
lowerneck 0.635281 -9.39254 -12.7856
upperneck 46.4999 -18.5567 9.19763
head 20.9843 -9.02537 3.88251
rclavicle 7.95139e-016 4.77083e-015
rhumerus -19.9891 23.8891 -95.9438
rradius 20.7758
rwrist 19.108
rhand -26.2339 -53.4817
rfingers 7.12502
rthumb 0.319814 -83.4612
lclavicle 7.95139e-016 4.77083e-015
lhumerus -42.8433 -82.8574 118.94
lradius 84.4394
lwrist 22.8806
lhand 6.40238 -20.0467
lfingers 7.12502
lthumb 31.7067 7.21761
rfemur -34.0784 1.86558 -4.34549
rtibia 76.2304
rfoot -1.90549 -7.89514
rtoes -34.7423
lfemur -49.8398 -18.8179 -28.0853
ltibia 57.4539
lfoot -20.5509 1.12354
ltoes 16.8234
1393
root 0.930093 15.7326 2.8733 5.49763 -46.154 12.0316
lowerback -0.328462 4.86715 6.09141
upperback 5.75368 6.30216 -1.27754
thorax 7.03853 3.47705 -4.28724
lowerneck 0.668854 -9.39283 -12.7964
upperneck 46.423 -18.5614 9.24674
head 20.9245 -9.0259 3.90779
rclavicle -7.07673e-014 1.59028e-014
rhumerus -19.9758 23.8392 -95.9145
rradius 20.806
rwrist 19.0766
rhand -26.1334 -53.6777
rfingers 7.12502
rthumb 0.416893 -83.6571
lclavicle -7.07673e-014 1.59028e-014
lhumerus -42.9505 -82.8962 119.038
lradius 84.5048
lwrist 22.9371
lhand 6.66039 -20.0931
lfingers 7.12502
lthumb 31.9524 7.12236
rfemur -34.064 1.80455 -4.50042
rtibia 76.2528
rfoot -1.92705 -7.83016
rtoes -35.9539
lfemur -49.8303 -18.7188 -28.2963
ltibia 57.4825
lfoot -20.6289 0.976047
ltoes 17.4531
1394
root 0.93014 15.7376 2.87469 5.37556 -46.1511 12.1374
lowerback -0.265905 4.8675 6.00316
upperback 5.76296 6.31011 -1.29492
thorax 7.00437 3.47625 -4.26138
lowerneck 0.675211 -9.3962 -12.8259
upperneck 46.3393 -18.6085 9.38329
head 20.906 -9.03862 3.97186
rclavicle 1.04163e-013 -4.13472e-014
rhumerus -19.9615 23.8491 -95.9187
rradius 20.756
rwrist 18.9788
rhand -26.1294 -53.6812
rfingers 7.12502
rthumb 0.42073 -83.6605
lclavicle 1.04163e-013 -4.13472e-014
lhumerus -43.0603 -82.9291 119.159
lradius 84.5243
lwrist 22.9208
lhand 7.00103 -20.1455
lfingers 7.12502
lthumb 32.2767 7.00454
rfemur -33.9913 1.75886 -4.56647
rtibia 76.2286
rfoot -1.60974 -7.8289
rtoes -35.0822
lfemur -49.7571 -18.7488 -28.4505
ltibia 57.4829
lfoot -20.6838 1.00174
ltoes 18.5566
